<svg xmlns="http://www.w3.org/2000/svg" xmlns:xlink="http://www.w3.org/1999/xlink" width="579pt" height="852pt" viewBox="0.00 0.00 579.09 851.76">
<g id="graph0" class="graph" transform="scale(1 1) rotate(0) translate(4 847.76)">
<title>pathway_6</title>
<polygon fill="white" stroke="transparent" points="-4,4 -4,-847.76 575.09,-847.76 575.09,4 -4,4"/>
<!-- s_001 -->
<g id="node1" class="node">
<title>s_001</title>
<g id="a_node1"><a xlink:href="http://www.metanetx.org/cgi-bin/mnxweb/chem_info?chem=MNXM10" xlink:title="NADH" xlink:show="new">
<polygon fill="none" stroke="green" stroke-width="0" points="67.99,-632.51 0,-632.51 0,-596.51 67.99,-596.51 67.99,-632.51"/>
<text text-anchor="middle" x="34" y="-609.11" font-family="Times,serif" font-size="18.00" fill="green">NADH</text>
</a>
</g>
</g>
<!-- r_002 -->
<g id="node9" class="node">
<title>r_002</title>
<ellipse fill="none" stroke="black" cx="224" cy="-479.88" rx="220.01" ry="22.76"/>
<text text-anchor="middle" x="224" y="-472.68" font-family="Times,serif" font-size="24.00">RR-02-0a885fdec2a1ff5f-16-F</text>
</g>
<!-- s_001&#45;&gt;r_002 -->
<g id="edge5" class="edge">
<title>s_001-&gt;r_002</title>
<path fill="none" stroke="green" stroke-width="2" d="M39.93,-596.4C46.56,-579.57 58.82,-554.2 77,-538.51 91.17,-526.28 108.24,-516.47 125.66,-508.67"/>
<polygon fill="green" stroke="green" stroke-width="2" points="128.32,-515.14 144.2,-501.11 123.03,-502.18 128.32,-515.14"/>
</g>
<!-- s_002 -->
<g id="node2" class="node">
<title>s_002</title>
<g id="a_node2"><a xlink:href="http://www.metanetx.org/cgi-bin/mnxweb/chem_info?chem=MNXM2" xlink:title="H2O" xlink:show="new">
<polygon fill="none" stroke="green" stroke-width="0" points="213,-843.76 159,-843.76 159,-807.76 213,-807.76 213,-843.76"/>
<text text-anchor="middle" x="186" y="-820.36" font-family="Times,serif" font-size="18.00" fill="green">H2O</text>
</a>
</g>
</g>
<!-- r_003 -->
<g id="node10" class="node">
<title>r_003</title>
<ellipse fill="none" stroke="black" cx="237" cy="-749.14" rx="231.78" ry="22.76"/>
<text text-anchor="middle" x="237" y="-741.94" font-family="Times,serif" font-size="24.00">RR-02-a51b7d91cd2e9c7b-16-F</text>
</g>
<!-- s_002&#45;&gt;r_003 -->
<g id="edge9" class="edge">
<title>s_002-&gt;r_003</title>
<path fill="none" stroke="green" stroke-width="2" d="M197.83,-807.46C201.73,-801.75 206.24,-795.15 210.78,-788.51"/>
<polygon fill="green" stroke="green" stroke-width="2" points="216.62,-792.36 222.13,-771.9 205.06,-784.46 216.62,-792.36"/>
</g>
<!-- s_003 -->
<g id="node3" class="node">
<title>s_003</title>
<g id="a_node3"><a xlink:href="http://www.metanetx.org/cgi-bin/mnxweb/chem_info?chem=MNXM4" xlink:title="O2" xlink:show="new">
<polygon fill="none" stroke="green" stroke-width="0" points="486,-632.51 432,-632.51 432,-596.51 486,-596.51 486,-632.51"/>
<text text-anchor="middle" x="459" y="-609.11" font-family="Times,serif" font-size="18.00" fill="green">O2</text>
</a>
</g>
</g>
<!-- r_001 -->
<g id="node8" class="node">
<title>r_001</title>
<ellipse fill="none" stroke="black" cx="348" cy="-210.63" rx="223.18" ry="22.76"/>
<text text-anchor="middle" x="348" y="-203.43" font-family="Times,serif" font-size="24.00">RR-02-a0cc0be463ff412f-16-F</text>
</g>
<!-- s_003&#45;&gt;r_001 -->
<g id="edge2" class="edge">
<title>s_003-&gt;r_001</title>
<path fill="none" stroke="green" stroke-width="2" d="M461.61,-596.23C468.75,-543.09 483.92,-379.06 419,-269.25 413.96,-260.74 407.17,-252.95 399.77,-246.04"/>
<polygon fill="green" stroke="green" stroke-width="2" points="404,-240.45 384.11,-233.15 395.1,-251.26 404,-240.45"/>
</g>
<!-- s_003&#45;&gt;r_002 -->
<g id="edge6" class="edge">
<title>s_003-&gt;r_002</title>
<path fill="none" stroke="green" stroke-width="2" d="M448.79,-596.23C437.94,-579.27 419.3,-553.79 397,-538.51 377.81,-525.36 355.4,-515.02 333.18,-506.95"/>
<polygon fill="green" stroke="green" stroke-width="2" points="335.4,-500.31 314.22,-500.56 330.94,-513.58 335.4,-500.31"/>
</g>
<!-- s_004 -->
<g id="node4" class="node">
<title>s_004</title>
<g id="a_node4"><a xlink:href="http://www.metanetx.org/cgi-bin/mnxweb/chem_info?chem=MNXM497" xlink:title="phenylacetate" xlink:show="new">
<polygon fill="none" stroke="green" stroke-width="0" points="345.44,-843.76 230.56,-843.76 230.56,-807.76 345.44,-807.76 345.44,-843.76"/>
<text text-anchor="middle" x="288" y="-820.36" font-family="Times,serif" font-size="18.00" fill="green">phenylacetate</text>
</a>
</g>
</g>
<!-- s_004&#45;&gt;r_003 -->
<g id="edge8" class="edge">
<title>s_004-&gt;r_003</title>
<path fill="none" stroke="green" stroke-width="2" d="M276.17,-807.46C272.27,-801.75 267.76,-795.15 263.22,-788.51"/>
<polygon fill="green" stroke="green" stroke-width="2" points="268.93,-784.46 251.87,-771.9 257.37,-792.36 268.93,-784.46"/>
</g>
<!-- c_001 -->
<g id="node5" class="node">
<title>c_001</title>
<g id="a_node5"><a xlink:title="CMPD_0000000003">
<polygon fill="none" stroke="black" stroke-width="0" points="410,-421.25 108,-421.25 108,-269.25 410,-269.25 410,-421.25"/>
<image xlink:href="img/CMPD_0000000003.svg" width="302px" height="152px" preserveAspectRatio="xMinYMin meet" x="107.998" y="-421.255"/>
</a>
</g>
</g>
<!-- c_001&#45;&gt;r_001 -->
<g id="edge1" class="edge">
<title>c_001-&gt;r_001</title>
<path fill="none" stroke="green" stroke-width="2" d="M309.48,-269.03C313.87,-262.48 318.19,-256.05 322.25,-250"/>
<polygon fill="green" stroke="green" stroke-width="2" points="328.16,-253.76 333.49,-233.25 316.53,-245.96 328.16,-253.76"/>
</g>
<!-- c_002 -->
<g id="node6" class="node">
<title>c_002</title>
<g id="a_node6"><a xlink:title="CMPD_0000000009">
<polygon fill="none" stroke="black" stroke-width="0" points="388,-690.51 86,-690.51 86,-538.51 388,-538.51 388,-690.51"/>
<image xlink:href="img/CMPD_0000000009.svg" width="302px" height="152px" preserveAspectRatio="xMinYMin meet" x="85.998" y="-690.51"/>
</a>
</g>
</g>
<!-- c_002&#45;&gt;r_002 -->
<g id="edge4" class="edge">
<title>c_002-&gt;r_002</title>
<path fill="none" stroke="green" stroke-width="2" d="M229.62,-538.28C229.11,-533.01 228.6,-527.81 228.11,-522.83"/>
<polygon fill="green" stroke="green" stroke-width="2" points="235.06,-522 226.14,-502.77 221.13,-523.36 235.06,-522"/>
</g>
<!-- p_001 -->
<g id="node7" class="node">
<title>p_001</title>
<g id="a_node7"><a xlink:title="TARGET_0000000001">
<polygon fill="none" stroke="red" points="499,-152 197,-152 197,0 499,0 499,-152"/>
<image xlink:href="img/TARGET_0000000001.svg" width="302px" height="152px" preserveAspectRatio="xMinYMin meet" x="196.998" y="-152"/>
</a>
</g>
</g>
<!-- r_001&#45;&gt;p_001 -->
<g id="edge3" class="edge">
<title>r_001-&gt;p_001</title>
<path fill="none" stroke="red" stroke-width="2" d="M348,-187.73C348,-183.11 348,-177.97 348,-172.5"/>
<polygon fill="red" stroke="red" stroke-width="2" points="355,-172.25 348,-152.25 341,-172.25 355,-172.25"/>
</g>
<!-- r_002&#45;&gt;c_001 -->
<g id="edge7" class="edge">
<title>r_002-&gt;c_001</title>
<path fill="none" stroke="red" stroke-width="2" d="M229.78,-456.98C231.06,-452.13 232.49,-446.7 234.02,-440.92"/>
<polygon fill="red" stroke="red" stroke-width="2" points="240.8,-442.63 239.14,-421.51 227.27,-439.06 240.8,-442.63"/>
</g>
<!-- r_003&#45;&gt;c_002 -->
<g id="edge10" class="edge">
<title>r_003-&gt;c_002</title>
<path fill="none" stroke="red" stroke-width="2" d="M237,-726.24C237,-721.62 237,-716.48 237,-711.01"/>
<polygon fill="red" stroke="red" stroke-width="2" points="244,-710.76 237,-690.76 230,-710.76 244,-710.76"/>
</g>
</g>
</svg>