<?xml version="1.0" encoding="UTF-8"?>
<svg xmlns="http://www.w3.org/2000/svg" xmlns:xlink="http://www.w3.org/1999/xlink" width="400pt" height="200pt" viewBox="0 0 400 200" version="1.1">
<defs>
<g>
<symbol overflow="visible" id="glyph0-0">
<path style="stroke:none;" d="M 0.386719 0 L 0.386719 -8.609375 L 7.21875 -8.609375 L 7.21875 0 Z M 6.140625 -1.078125 L 6.140625 -7.53125 L 1.464844 -7.53125 L 1.464844 -1.078125 Z M 6.140625 -1.078125 "/>
</symbol>
<symbol overflow="visible" id="glyph0-1">
<path style="stroke:none;" d="M 4.628906 -8.84375 C 6.148438 -8.84375 7.273438 -8.351562 8.003906 -7.375 C 8.574219 -6.613281 8.859375 -5.640625 8.859375 -4.453125 C 8.859375 -3.167969 8.53125 -2.101562 7.882812 -1.25 C 7.117188 -0.25 6.023438 0.25 4.605469 0.25 C 3.28125 0.25 2.242188 -0.1875 1.484375 -1.0625 C 0.808594 -1.90625 0.46875 -2.96875 0.46875 -4.257812 C 0.46875 -5.421875 0.757812 -6.421875 1.335938 -7.25 C 2.078125 -8.3125 3.175781 -8.84375 4.628906 -8.84375 Z M 4.746094 -0.789062 C 5.773438 -0.789062 6.515625 -1.160156 6.976562 -1.894531 C 7.433594 -2.632812 7.664062 -3.476562 7.664062 -4.4375 C 7.664062 -5.449219 7.398438 -6.261719 6.871094 -6.878906 C 6.339844 -7.496094 5.617188 -7.804688 4.699219 -7.804688 C 3.808594 -7.804688 3.082031 -7.5 2.519531 -6.886719 C 1.957031 -6.277344 1.675781 -5.375 1.675781 -4.183594 C 1.675781 -3.230469 1.917969 -2.425781 2.398438 -1.773438 C 2.882812 -1.117188 3.664062 -0.789062 4.746094 -0.789062 Z M 4.746094 -0.789062 "/>
</symbol>
<symbol overflow="visible" id="glyph1-0">
<path style="stroke:none;" d="M 0.289062 0 L 0.289062 -11.910156 L 12.578125 -11.910156 L 12.578125 0 Z M 10.960938 -1.617188 L 10.960938 -10.292969 L 1.90625 -10.292969 L 1.90625 -1.617188 Z M 10.960938 -1.617188 "/>
</symbol>
<symbol overflow="visible" id="glyph1-1">
<path style="stroke:none;" d="M 2.875 -1.617188 C 3.027344 -1.21875 3.253906 -0.921875 3.554688 -0.726562 C 3.855469 -0.53125 4.210938 -0.429688 4.625 -0.429688 C 5.257812 -0.429688 5.796875 -0.746094 6.246094 -1.375 C 6.695312 -2.003906 6.917969 -2.882812 6.917969 -4.007812 C 6.917969 -5.085938 6.683594 -5.890625 6.21875 -6.425781 C 5.753906 -6.957031 5.210938 -7.226562 4.597656 -7.226562 C 4.164062 -7.226562 3.765625 -7.089844 3.410156 -6.824219 C 3.054688 -6.558594 2.875 -6.296875 2.875 -6.039062 Z M 0.078125 3.628906 C 0.628906 3.59375 0.980469 3.476562 1.128906 3.277344 C 1.277344 3.078125 1.351562 2.765625 1.351562 2.335938 L 1.351562 -6.101562 C 1.351562 -6.546875 1.300781 -6.832031 1.191406 -6.957031 C 1.082031 -7.082031 0.878906 -7.144531 0.578125 -7.144531 C 0.515625 -7.144531 0.457031 -7.140625 0.398438 -7.136719 C 0.34375 -7.132812 0.265625 -7.117188 0.15625 -7.101562 L 0.15625 -7.390625 L 0.992188 -7.664062 C 1.023438 -7.671875 1.609375 -7.871094 2.757812 -8.269531 C 2.789062 -8.269531 2.8125 -8.257812 2.824219 -8.230469 C 2.839844 -8.203125 2.847656 -8.171875 2.847656 -8.140625 L 2.847656 -6.953125 C 3.234375 -7.339844 3.574219 -7.625 3.867188 -7.8125 C 4.394531 -8.140625 4.9375 -8.304688 5.492188 -8.304688 C 6.300781 -8.304688 6.996094 -7.960938 7.582031 -7.273438 C 8.164062 -6.585938 8.453125 -5.640625 8.453125 -4.445312 C 8.453125 -3.273438 8.105469 -2.210938 7.40625 -1.257812 C 6.703125 -0.300781 5.824219 0.175781 4.765625 0.175781 C 4.4375 0.175781 4.152344 0.132812 3.910156 0.0546875 C 3.535156 -0.0703125 3.191406 -0.296875 2.875 -0.625 L 2.875 2.25 C 2.875 2.84375 2.96875 3.203125 3.164062 3.339844 C 3.359375 3.476562 3.78125 3.566406 4.429688 3.613281 L 4.429688 3.921875 L 0.078125 3.921875 Z M 0.078125 3.628906 "/>
</symbol>
<symbol overflow="visible" id="glyph1-2">
<path style="stroke:none;" d="M 0.15625 -0.246094 C 0.636719 -0.3125 0.953125 -0.429688 1.101562 -0.601562 C 1.25 -0.773438 1.328125 -1.183594 1.328125 -1.828125 L 1.328125 -10.265625 C 1.328125 -10.59375 1.285156 -10.835938 1.199219 -10.992188 C 1.113281 -11.148438 0.90625 -11.222656 0.578125 -11.222656 C 0.515625 -11.222656 0.453125 -11.21875 0.390625 -11.210938 C 0.328125 -11.203125 0.261719 -11.191406 0.183594 -11.179688 L 0.183594 -11.496094 C 0.441406 -11.570312 0.761719 -11.664062 1.136719 -11.773438 C 1.515625 -11.882812 1.777344 -11.960938 1.925781 -12.007812 L 2.769531 -12.269531 L 2.785156 -12.207031 L 2.785156 -6.8125 C 3.15625 -7.234375 3.484375 -7.542969 3.769531 -7.742188 C 4.285156 -8.09375 4.84375 -8.269531 5.441406 -8.269531 C 6.390625 -8.269531 7.039062 -7.871094 7.382812 -7.074219 C 7.570312 -6.652344 7.664062 -6.101562 7.664062 -5.414062 L 7.664062 -1.828125 C 7.664062 -1.207031 7.734375 -0.804688 7.878906 -0.617188 C 8.023438 -0.429688 8.316406 -0.304688 8.761719 -0.246094 L 8.761719 0 L 4.957031 0 L 4.957031 -0.246094 C 5.46875 -0.316406 5.796875 -0.4375 5.941406 -0.605469 C 6.085938 -0.777344 6.160156 -1.183594 6.160156 -1.828125 L 6.160156 -5.386719 C 6.160156 -5.957031 6.066406 -6.414062 5.875 -6.765625 C 5.683594 -7.117188 5.328125 -7.296875 4.796875 -7.296875 C 4.339844 -7.296875 3.898438 -7.132812 3.472656 -6.804688 C 3.042969 -6.476562 2.828125 -6.261719 2.828125 -6.160156 L 2.828125 -1.828125 C 2.828125 -1.171875 2.90625 -0.761719 3.058594 -0.597656 C 3.210938 -0.433594 3.535156 -0.316406 4.035156 -0.246094 L 4.035156 0 L 0.15625 0 Z M 0.15625 -0.246094 "/>
</symbol>
<symbol overflow="visible" id="glyph1-3">
<path style="stroke:none;" d="M 4.121094 -8.242188 C 4.949219 -8.242188 5.671875 -7.957031 6.292969 -7.386719 C 6.914062 -6.816406 7.226562 -6.007812 7.226562 -4.957031 L 1.644531 -4.957031 C 1.703125 -3.597656 2.007812 -2.609375 2.566406 -1.984375 C 3.125 -1.363281 3.78125 -1.054688 4.542969 -1.054688 C 5.160156 -1.054688 5.679688 -1.214844 6.101562 -1.539062 C 6.523438 -1.859375 6.910156 -2.316406 7.269531 -2.910156 L 7.578125 -2.804688 C 7.335938 -2.058594 6.886719 -1.371094 6.226562 -0.738281 C 5.566406 -0.105469 4.761719 0.210938 3.804688 0.210938 C 2.703125 0.210938 1.851562 -0.203125 1.253906 -1.039062 C 0.652344 -1.871094 0.351562 -2.828125 0.351562 -3.910156 C 0.351562 -5.089844 0.699219 -6.105469 1.398438 -6.960938 C 2.09375 -7.816406 3.003906 -8.242188 4.121094 -8.242188 Z M 3.613281 -7.601562 C 2.945312 -7.601562 2.433594 -7.304688 2.082031 -6.714844 C 1.894531 -6.398438 1.761719 -6 1.679688 -5.519531 L 5.386719 -5.519531 C 5.324219 -6.105469 5.210938 -6.542969 5.054688 -6.828125 C 4.765625 -7.34375 4.285156 -7.601562 3.613281 -7.601562 Z M 3.613281 -7.601562 "/>
</symbol>
<symbol overflow="visible" id="glyph1-4">
<path style="stroke:none;" d="M 0.324219 -0.246094 C 0.742188 -0.296875 1.03125 -0.402344 1.199219 -0.558594 C 1.367188 -0.714844 1.449219 -1.0625 1.449219 -1.601562 L 1.449219 -6.054688 C 1.449219 -6.429688 1.414062 -6.695312 1.34375 -6.847656 C 1.234375 -7.070312 1.003906 -7.179688 0.660156 -7.179688 C 0.605469 -7.179688 0.550781 -7.179688 0.496094 -7.171875 C 0.441406 -7.164062 0.371094 -7.15625 0.289062 -7.144531 L 0.289062 -7.453125 C 0.53125 -7.523438 1.097656 -7.703125 1.996094 -8 L 2.820312 -8.269531 C 2.863281 -8.269531 2.886719 -8.257812 2.894531 -8.226562 C 2.90625 -8.195312 2.910156 -8.15625 2.910156 -8.101562 L 2.910156 -6.8125 C 3.449219 -7.316406 3.871094 -7.660156 4.175781 -7.847656 C 4.632812 -8.136719 5.105469 -8.28125 5.597656 -8.28125 C 5.996094 -8.28125 6.359375 -8.164062 6.6875 -7.9375 C 7.320312 -7.492188 7.636719 -6.695312 7.636719 -5.554688 L 7.636719 -1.449219 C 7.636719 -1.027344 7.722656 -0.722656 7.890625 -0.535156 C 8.0625 -0.347656 8.347656 -0.25 8.746094 -0.246094 L 8.746094 0 L 4.992188 0 L 4.992188 -0.246094 C 5.421875 -0.304688 5.71875 -0.421875 5.890625 -0.601562 C 6.058594 -0.78125 6.144531 -1.167969 6.144531 -1.765625 L 6.144531 -5.519531 C 6.144531 -6.023438 6.050781 -6.441406 5.863281 -6.773438 C 5.675781 -7.101562 5.328125 -7.269531 4.824219 -7.269531 C 4.480469 -7.269531 4.128906 -7.152344 3.769531 -6.917969 C 3.570312 -6.78125 3.3125 -6.558594 2.996094 -6.25 L 2.996094 -1.328125 C 2.996094 -0.90625 3.089844 -0.621094 3.277344 -0.480469 C 3.464844 -0.335938 3.761719 -0.257812 4.164062 -0.246094 L 4.164062 0 L 0.324219 0 Z M 0.324219 -0.246094 "/>
</symbol>
<symbol overflow="visible" id="glyph1-5">
<path style="stroke:none;" d="M 0.246094 -8.078125 L 3.953125 -8.078125 L 3.953125 -7.804688 C 3.660156 -7.796875 3.445312 -7.773438 3.304688 -7.726562 C 3.035156 -7.648438 2.898438 -7.5 2.898438 -7.277344 C 2.898438 -7.195312 2.914062 -7.113281 2.945312 -7.027344 C 2.972656 -6.941406 3.027344 -6.8125 3.101562 -6.644531 L 5.160156 -2.082031 L 6.8125 -6.679688 C 6.828125 -6.726562 6.855469 -6.832031 6.894531 -6.996094 C 6.933594 -7.160156 6.953125 -7.273438 6.953125 -7.328125 C 6.953125 -7.480469 6.898438 -7.59375 6.792969 -7.664062 C 6.6875 -7.734375 6.554688 -7.773438 6.390625 -7.789062 L 6.117188 -7.804688 L 6.117188 -8.078125 L 8.535156 -8.078125 L 8.535156 -7.804688 C 8.292969 -7.773438 8.113281 -7.695312 7.992188 -7.558594 C 7.875 -7.421875 7.769531 -7.234375 7.679688 -6.996094 L 4.914062 0.335938 C 4.433594 1.601562 3.972656 2.515625 3.53125 3.085938 C 3.09375 3.652344 2.539062 3.9375 1.863281 3.9375 C 1.535156 3.9375 1.226562 3.855469 0.941406 3.691406 C 0.652344 3.527344 0.507812 3.265625 0.507812 2.910156 C 0.507812 2.675781 0.597656 2.484375 0.769531 2.332031 C 0.941406 2.183594 1.160156 2.109375 1.421875 2.109375 C 1.574219 2.109375 1.804688 2.164062 2.105469 2.277344 C 2.40625 2.386719 2.621094 2.445312 2.75 2.445312 C 3.078125 2.445312 3.425781 2.0625 3.789062 1.300781 C 4.152344 0.539062 4.332031 0.03125 4.332031 -0.226562 C 4.332031 -0.28125 4.324219 -0.34375 4.304688 -0.421875 C 4.289062 -0.5 4.269531 -0.566406 4.246094 -0.625 L 1.433594 -6.707031 C 1.234375 -7.140625 1.058594 -7.425781 0.910156 -7.5625 C 0.761719 -7.699219 0.539062 -7.789062 0.246094 -7.832031 Z M 0.246094 -8.078125 "/>
</symbol>
<symbol overflow="visible" id="glyph1-6">
<path style="stroke:none;" d="M 0.367188 -0.246094 C 0.914062 -0.296875 1.28125 -0.410156 1.476562 -0.574219 C 1.671875 -0.742188 1.765625 -1.070312 1.765625 -1.554688 L 1.765625 -10.140625 C 1.765625 -10.527344 1.734375 -10.796875 1.671875 -10.941406 C 1.554688 -11.1875 1.316406 -11.3125 0.957031 -11.3125 C 0.875 -11.3125 0.785156 -11.304688 0.691406 -11.285156 C 0.59375 -11.265625 0.472656 -11.242188 0.324219 -11.207031 L 0.324219 -11.496094 C 1.117188 -11.707031 2.070312 -11.988281 3.179688 -12.339844 C 3.222656 -12.339844 3.246094 -12.320312 3.257812 -12.289062 C 3.265625 -12.253906 3.269531 -12.175781 3.269531 -12.058594 L 3.269531 -1.519531 C 3.269531 -1.011719 3.359375 -0.679688 3.53125 -0.53125 C 3.707031 -0.382812 4.070312 -0.289062 4.625 -0.246094 L 4.625 0 L 0.367188 0 Z M 0.367188 -0.246094 "/>
</symbol>
<symbol overflow="visible" id="glyph1-7">
<path style="stroke:none;" d="M 5.160156 -4.867188 C 4.484375 -4.644531 3.929688 -4.398438 3.488281 -4.132812 C 2.644531 -3.609375 2.222656 -3.015625 2.222656 -2.355469 C 2.222656 -1.820312 2.398438 -1.429688 2.75 -1.179688 C 2.980469 -1.015625 3.234375 -0.929688 3.515625 -0.929688 C 3.902344 -0.929688 4.273438 -1.039062 4.628906 -1.257812 C 4.984375 -1.472656 5.160156 -1.75 5.160156 -2.082031 Z M 0.660156 -1.75 C 0.660156 -2.597656 1.085938 -3.308594 1.933594 -3.875 C 2.472656 -4.226562 3.546875 -4.703125 5.160156 -5.308594 L 5.160156 -6.054688 C 5.160156 -6.652344 5.101562 -7.070312 4.984375 -7.304688 C 4.785156 -7.695312 4.371094 -7.890625 3.742188 -7.890625 C 3.445312 -7.890625 3.160156 -7.816406 2.890625 -7.664062 C 2.621094 -7.507812 2.488281 -7.289062 2.488281 -7.015625 C 2.488281 -6.945312 2.5 -6.824219 2.53125 -6.65625 C 2.5625 -6.492188 2.574219 -6.382812 2.574219 -6.335938 C 2.574219 -6.007812 2.46875 -5.78125 2.25 -5.652344 C 2.125 -5.574219 1.980469 -5.539062 1.8125 -5.539062 C 1.546875 -5.539062 1.34375 -5.625 1.203125 -5.796875 C 1.0625 -5.96875 0.992188 -6.160156 0.992188 -6.371094 C 0.992188 -6.78125 1.246094 -7.210938 1.753906 -7.660156 C 2.261719 -8.109375 3.003906 -8.332031 3.980469 -8.332031 C 5.117188 -8.332031 5.890625 -7.960938 6.292969 -7.226562 C 6.507812 -6.820312 6.617188 -6.230469 6.617188 -5.457031 L 6.617188 -1.933594 C 6.617188 -1.59375 6.640625 -1.359375 6.6875 -1.230469 C 6.765625 -1 6.921875 -0.886719 7.164062 -0.886719 C 7.296875 -0.886719 7.410156 -0.90625 7.496094 -0.949219 C 7.585938 -0.992188 7.738281 -1.089844 7.953125 -1.25 L 7.953125 -0.789062 C 7.765625 -0.5625 7.5625 -0.375 7.347656 -0.226562 C 7.019531 -0.00390625 6.6875 0.105469 6.34375 0.105469 C 5.945312 0.105469 5.660156 -0.0234375 5.480469 -0.28125 C 5.300781 -0.539062 5.203125 -0.847656 5.1875 -1.203125 C 4.742188 -0.816406 4.359375 -0.53125 4.042969 -0.34375 C 3.507812 -0.0273438 3.003906 0.132812 2.523438 0.132812 C 2.019531 0.132812 1.582031 -0.046875 1.210938 -0.398438 C 0.84375 -0.753906 0.660156 -1.203125 0.660156 -1.75 Z M 0.660156 -1.75 "/>
</symbol>
<symbol overflow="visible" id="glyph1-8">
<path style="stroke:none;" d="M 4.472656 -8.289062 C 5.207031 -8.289062 5.835938 -8.097656 6.367188 -7.722656 C 6.898438 -7.34375 7.164062 -6.929688 7.164062 -6.476562 C 7.164062 -6.285156 7.09375 -6.105469 6.960938 -5.9375 C 6.828125 -5.769531 6.617188 -5.6875 6.335938 -5.6875 C 6.132812 -5.6875 5.953125 -5.757812 5.796875 -5.898438 C 5.640625 -6.039062 5.527344 -6.242188 5.457031 -6.511719 L 5.351562 -6.933594 C 5.277344 -7.246094 5.144531 -7.464844 4.957031 -7.59375 C 4.765625 -7.71875 4.507812 -7.777344 4.191406 -7.777344 C 3.523438 -7.777344 2.960938 -7.488281 2.5 -6.902344 C 2.039062 -6.320312 1.8125 -5.546875 1.8125 -4.578125 C 1.8125 -3.695312 2.0625 -2.898438 2.570312 -2.195312 C 3.078125 -1.492188 3.761719 -1.140625 4.625 -1.140625 C 5.234375 -1.140625 5.773438 -1.34375 6.25 -1.742188 C 6.519531 -1.96875 6.824219 -2.332031 7.164062 -2.828125 L 7.410156 -2.679688 C 7.074219 -1.976562 6.722656 -1.421875 6.355469 -1.011719 C 5.644531 -0.226562 4.824219 0.167969 3.894531 0.167969 C 2.980469 0.167969 2.171875 -0.195312 1.46875 -0.914062 C 0.765625 -1.632812 0.414062 -2.613281 0.414062 -3.851562 C 0.414062 -5.0625 0.796875 -6.105469 1.5625 -6.976562 C 2.332031 -7.851562 3.300781 -8.289062 4.472656 -8.289062 Z M 4.472656 -8.289062 "/>
</symbol>
<symbol overflow="visible" id="glyph1-9">
<path style="stroke:none;" d="M 4.578125 -8.101562 L 4.578125 -7.46875 L 2.785156 -7.46875 L 2.769531 -2.40625 C 2.769531 -1.960938 2.804688 -1.625 2.882812 -1.398438 C 3.023438 -0.992188 3.296875 -0.789062 3.710938 -0.789062 C 3.921875 -0.789062 4.101562 -0.839844 4.257812 -0.941406 C 4.414062 -1.039062 4.589844 -1.199219 4.789062 -1.414062 L 5.019531 -1.222656 L 4.824219 -0.957031 C 4.519531 -0.546875 4.199219 -0.257812 3.859375 -0.0859375 C 3.519531 0.0820312 3.191406 0.167969 2.875 0.167969 C 2.183594 0.167969 1.714844 -0.140625 1.46875 -0.757812 C 1.332031 -1.089844 1.265625 -1.554688 1.265625 -2.144531 L 1.265625 -7.46875 L 0.308594 -7.46875 C 0.277344 -7.488281 0.257812 -7.507812 0.242188 -7.523438 C 0.226562 -7.539062 0.21875 -7.5625 0.21875 -7.59375 C 0.21875 -7.652344 0.234375 -7.699219 0.257812 -7.730469 C 0.285156 -7.761719 0.367188 -7.835938 0.507812 -7.953125 C 0.914062 -8.289062 1.207031 -8.558594 1.382812 -8.765625 C 1.5625 -8.976562 1.984375 -9.523438 2.644531 -10.414062 C 2.722656 -10.414062 2.765625 -10.410156 2.78125 -10.398438 C 2.796875 -10.386719 2.804688 -10.34375 2.804688 -10.265625 L 2.804688 -8.101562 Z M 4.578125 -8.101562 "/>
</symbol>
<symbol overflow="visible" id="glyph1-10">
<path style="stroke:none;" d="M 4.261719 -8.304688 C 4.691406 -8.304688 5.082031 -8.210938 5.441406 -8.023438 C 5.675781 -7.902344 5.898438 -7.730469 6.117188 -7.515625 L 6.117188 -10.308594 C 6.117188 -10.667969 6.078125 -10.914062 6 -11.046875 C 5.921875 -11.183594 5.730469 -11.25 5.429688 -11.25 C 5.359375 -11.25 5.300781 -11.246094 5.246094 -11.242188 C 5.195312 -11.234375 5.078125 -11.222656 4.894531 -11.207031 L 4.894531 -11.496094 L 5.617188 -11.679688 C 5.878906 -11.75 6.144531 -11.824219 6.40625 -11.898438 C 6.671875 -11.976562 6.902344 -12.050781 7.101562 -12.121094 C 7.195312 -12.148438 7.351562 -12.203125 7.566406 -12.289062 L 7.621094 -12.269531 L 7.601562 -11.347656 C 7.597656 -11.011719 7.589844 -10.667969 7.585938 -10.3125 C 7.578125 -9.960938 7.578125 -9.609375 7.578125 -9.265625 L 7.558594 -2.082031 C 7.558594 -1.703125 7.605469 -1.4375 7.699219 -1.28125 C 7.792969 -1.128906 8.042969 -1.054688 8.445312 -1.054688 C 8.511719 -1.054688 8.574219 -1.054688 8.640625 -1.058594 C 8.703125 -1.0625 8.769531 -1.070312 8.832031 -1.082031 L 8.832031 -0.789062 C 8.796875 -0.777344 8.375 -0.632812 7.558594 -0.351562 L 6.179688 0.167969 L 6.117188 0.0859375 L 6.117188 -0.992188 C 5.789062 -0.636719 5.503906 -0.382812 5.265625 -0.226562 C 4.835938 0.0351562 4.34375 0.167969 3.78125 0.167969 C 2.785156 0.167969 1.976562 -0.21875 1.359375 -0.988281 C 0.742188 -1.757812 0.429688 -2.652344 0.429688 -3.664062 C 0.429688 -4.9375 0.800781 -6.027344 1.542969 -6.9375 C 2.285156 -7.851562 3.191406 -8.304688 4.261719 -8.304688 Z M 4.585938 -0.78125 C 5.042969 -0.78125 5.414062 -0.917969 5.695312 -1.1875 C 5.976562 -1.457031 6.117188 -1.710938 6.117188 -1.953125 L 6.117188 -5.722656 C 6.117188 -6.484375 5.914062 -7.019531 5.507812 -7.335938 C 5.101562 -7.648438 4.703125 -7.804688 4.316406 -7.804688 C 3.578125 -7.804688 3.003906 -7.476562 2.59375 -6.824219 C 2.183594 -6.171875 1.976562 -5.367188 1.976562 -4.414062 C 1.976562 -3.46875 2.195312 -2.628906 2.632812 -1.890625 C 3.070312 -1.152344 3.71875 -0.78125 4.585938 -0.78125 Z M 4.585938 -0.78125 "/>
</symbol>
</g>
</defs>
<g id="surface121">
<rect x="0" y="0" width="400" height="200" style="fill:rgb(100%,100%,100%);fill-opacity:1;stroke:none;"/>
<g style="fill:rgb(100%,0%,0%);fill-opacity:1;">
  <use xlink:href="#glyph0-1" x="108.261719" y="103.84375"/>
</g>
<path style="fill:none;stroke-width:1;stroke-linecap:butt;stroke-linejoin:miter;stroke:rgb(0%,0%,0%);stroke-opacity:1;stroke-miterlimit:10;" d="M 148.75 86.65625 L 133.167969 90.425781 "/>
<path style="fill:none;stroke-width:1;stroke-linecap:butt;stroke-linejoin:miter;stroke:rgb(100%,0%,0%);stroke-opacity:1;stroke-miterlimit:10;" d="M 133.167969 90.425781 L 117.589844 94.199219 "/>
<path style="fill:none;stroke-width:1;stroke-linecap:butt;stroke-linejoin:miter;stroke:rgb(0%,0%,0%);stroke-opacity:1;stroke-miterlimit:10;" d="M 150.515625 93.945312 L 134.933594 97.714844 "/>
<path style="fill:none;stroke-width:1;stroke-linecap:butt;stroke-linejoin:miter;stroke:rgb(100%,0%,0%);stroke-opacity:1;stroke-miterlimit:10;" d="M 134.933594 97.714844 L 119.351562 101.488281 "/>
<path style="fill:none;stroke-width:1;stroke-linecap:butt;stroke-linejoin:miter;stroke:rgb(0%,0%,0%);stroke-opacity:1;stroke-miterlimit:10;" d="M 149.632812 90.300781 L 176.015625 117.996094 "/>
<path style="fill:none;stroke-width:1;stroke-linecap:butt;stroke-linejoin:miter;stroke:rgb(0%,0%,0%);stroke-opacity:1;stroke-miterlimit:10;" d="M 176.015625 117.996094 L 213.191406 109 "/>
<path style="fill:none;stroke-width:1;stroke-linecap:butt;stroke-linejoin:miter;stroke:rgb(0%,0%,0%);stroke-opacity:1;stroke-miterlimit:10;" d="M 213.191406 109 L 223.984375 72.304688 "/>
<path style="fill:none;stroke-width:1;stroke-linecap:butt;stroke-linejoin:miter;stroke:rgb(0%,0%,0%);stroke-opacity:1;stroke-miterlimit:10;" d="M 221.464844 107.445312 L 230.101562 78.089844 "/>
<path style="fill:none;stroke-width:1;stroke-linecap:butt;stroke-linejoin:miter;stroke:rgb(0%,0%,0%);stroke-opacity:1;stroke-miterlimit:10;" d="M 223.984375 72.304688 L 261.164062 63.304688 "/>
<path style="fill:none;stroke-width:1;stroke-linecap:butt;stroke-linejoin:miter;stroke:rgb(0%,0%,0%);stroke-opacity:1;stroke-miterlimit:10;" d="M 261.164062 63.304688 L 287.542969 91 "/>
<path style="fill:none;stroke-width:1;stroke-linecap:butt;stroke-linejoin:miter;stroke:rgb(0%,0%,0%);stroke-opacity:1;stroke-miterlimit:10;" d="M 258.371094 71.246094 L 279.476562 93.40625 "/>
<path style="fill:none;stroke-width:1;stroke-linecap:butt;stroke-linejoin:miter;stroke:rgb(0%,0%,0%);stroke-opacity:1;stroke-miterlimit:10;" d="M 287.542969 91 L 276.746094 127.695312 "/>
<path style="fill:none;stroke-width:1;stroke-linecap:butt;stroke-linejoin:miter;stroke:rgb(0%,0%,0%);stroke-opacity:1;stroke-miterlimit:10;" d="M 276.746094 127.695312 L 239.570312 136.695312 "/>
<path style="fill:none;stroke-width:1;stroke-linecap:butt;stroke-linejoin:miter;stroke:rgb(0%,0%,0%);stroke-opacity:1;stroke-miterlimit:10;" d="M 271.265625 121.308594 L 241.523438 128.503906 "/>
<path style="fill:none;stroke-width:1;stroke-linecap:butt;stroke-linejoin:miter;stroke:rgb(0%,0%,0%);stroke-opacity:1;stroke-miterlimit:10;" d="M 239.570312 136.695312 L 213.191406 109 "/>
<g style="fill:rgb(0%,0%,0%);fill-opacity:1;">
  <use xlink:href="#glyph1-1" x="128.78125" y="28.140625"/>
  <use xlink:href="#glyph1-2" x="137.78125" y="28.140625"/>
  <use xlink:href="#glyph1-3" x="146.78125" y="28.140625"/>
  <use xlink:href="#glyph1-4" x="154.770508" y="28.140625"/>
  <use xlink:href="#glyph1-5" x="163.770508" y="28.140625"/>
  <use xlink:href="#glyph1-6" x="172.770508" y="28.140625"/>
  <use xlink:href="#glyph1-7" x="177.771484" y="28.140625"/>
  <use xlink:href="#glyph1-8" x="185.760742" y="28.140625"/>
  <use xlink:href="#glyph1-3" x="193.75" y="28.140625"/>
  <use xlink:href="#glyph1-9" x="201.739258" y="28.140625"/>
  <use xlink:href="#glyph1-7" x="206.740234" y="28.140625"/>
  <use xlink:href="#glyph1-6" x="214.729492" y="28.140625"/>
  <use xlink:href="#glyph1-10" x="219.730469" y="28.140625"/>
  <use xlink:href="#glyph1-3" x="228.730469" y="28.140625"/>
  <use xlink:href="#glyph1-2" x="236.719727" y="28.140625"/>
  <use xlink:href="#glyph1-5" x="245.719727" y="28.140625"/>
  <use xlink:href="#glyph1-10" x="254.719727" y="28.140625"/>
  <use xlink:href="#glyph1-3" x="263.719727" y="28.140625"/>
</g>
</g>
</svg>
