<?xml version="1.0" encoding="UTF-8"?>
<svg xmlns="http://www.w3.org/2000/svg" xmlns:xlink="http://www.w3.org/1999/xlink" width="400pt" height="200pt" viewBox="0 0 400 200" version="1.1">
<defs>
<g>
<symbol overflow="visible" id="glyph0-0">
<path style="stroke:none;" d="M 0.386719 0 L 0.386719 -8.609375 L 7.21875 -8.609375 L 7.21875 0 Z M 6.140625 -1.078125 L 6.140625 -7.53125 L 1.464844 -7.53125 L 1.464844 -1.078125 Z M 6.140625 -1.078125 "/>
</symbol>
<symbol overflow="visible" id="glyph0-1">
<path style="stroke:none;" d="M 4.628906 -8.84375 C 6.148438 -8.84375 7.273438 -8.351562 8.003906 -7.375 C 8.574219 -6.613281 8.859375 -5.640625 8.859375 -4.453125 C 8.859375 -3.167969 8.53125 -2.101562 7.882812 -1.25 C 7.117188 -0.25 6.023438 0.25 4.605469 0.25 C 3.28125 0.25 2.242188 -0.1875 1.484375 -1.0625 C 0.808594 -1.90625 0.46875 -2.96875 0.46875 -4.257812 C 0.46875 -5.421875 0.757812 -6.421875 1.335938 -7.25 C 2.078125 -8.3125 3.175781 -8.84375 4.628906 -8.84375 Z M 4.746094 -0.789062 C 5.773438 -0.789062 6.515625 -1.160156 6.976562 -1.894531 C 7.433594 -2.632812 7.664062 -3.476562 7.664062 -4.4375 C 7.664062 -5.449219 7.398438 -6.261719 6.871094 -6.878906 C 6.339844 -7.496094 5.617188 -7.804688 4.699219 -7.804688 C 3.808594 -7.804688 3.082031 -7.5 2.519531 -6.886719 C 1.957031 -6.277344 1.675781 -5.375 1.675781 -4.183594 C 1.675781 -3.230469 1.917969 -2.425781 2.398438 -1.773438 C 2.882812 -1.117188 3.664062 -0.789062 4.746094 -0.789062 Z M 4.746094 -0.789062 "/>
</symbol>
<symbol overflow="visible" id="glyph0-2">
<path style="stroke:none;" d="M 0.945312 -8.609375 L 2.121094 -8.609375 L 2.121094 -5.050781 L 6.597656 -5.050781 L 6.597656 -8.609375 L 7.773438 -8.609375 L 7.773438 0 L 6.597656 0 L 6.597656 -4.023438 L 2.121094 -4.023438 L 2.121094 0 L 0.945312 0 Z M 0.945312 -8.609375 "/>
</symbol>
<symbol overflow="visible" id="glyph0-3">
<path style="stroke:none;" d="M 0.375 0 C 0.414062 -0.722656 0.5625 -1.351562 0.824219 -1.886719 C 1.082031 -2.421875 1.589844 -2.90625 2.34375 -3.34375 L 3.46875 -3.996094 C 3.972656 -4.289062 4.328125 -4.539062 4.53125 -4.746094 C 4.851562 -5.070312 5.007812 -5.441406 5.007812 -5.859375 C 5.007812 -6.347656 4.863281 -6.734375 4.570312 -7.023438 C 4.277344 -7.308594 3.886719 -7.453125 3.398438 -7.453125 C 2.675781 -7.453125 2.175781 -7.179688 1.898438 -6.632812 C 1.75 -6.339844 1.667969 -5.933594 1.652344 -5.414062 L 0.578125 -5.414062 C 0.589844 -6.144531 0.726562 -6.742188 0.984375 -7.203125 C 1.441406 -8.015625 2.25 -8.421875 3.40625 -8.421875 C 4.367188 -8.421875 5.066406 -8.160156 5.511719 -7.640625 C 5.953125 -7.121094 6.175781 -6.542969 6.175781 -5.90625 C 6.175781 -5.234375 5.9375 -4.660156 5.46875 -4.183594 C 5.195312 -3.90625 4.703125 -3.570312 3.996094 -3.175781 L 3.195312 -2.730469 C 2.8125 -2.519531 2.507812 -2.320312 2.289062 -2.125 C 1.898438 -1.785156 1.65625 -1.410156 1.554688 -0.996094 L 6.132812 -0.996094 L 6.132812 0 Z M 0.375 0 "/>
</symbol>
<symbol overflow="visible" id="glyph0-4">
<path style="stroke:none;" d="M 0.914062 -8.609375 L 2.289062 -8.609375 L 6.640625 -1.632812 L 6.640625 -8.609375 L 7.746094 -8.609375 L 7.746094 0 L 6.4375 0 L 2.027344 -6.96875 L 2.027344 0 L 0.914062 0 Z M 0.914062 -8.609375 "/>
</symbol>
<symbol overflow="visible" id="glyph1-0">
<path style="stroke:none;" d="M 0.289062 0 L 0.289062 -11.910156 L 12.578125 -11.910156 L 12.578125 0 Z M 10.960938 -1.617188 L 10.960938 -10.292969 L 1.90625 -10.292969 L 1.90625 -1.617188 Z M 10.960938 -1.617188 "/>
</symbol>
<symbol overflow="visible" id="glyph1-1">
<path style="stroke:none;" d="M 5.246094 -10.265625 L 0.929688 -4.164062 L 5.246094 -4.164062 Z M 5.828125 -12.078125 L 6.664062 -12.078125 L 6.664062 -4.164062 L 8.5 -4.164062 L 8.5 -2.996094 L 6.664062 -2.996094 L 6.664062 0 L 5.265625 0 L 5.265625 -2.996094 L 0.203125 -2.996094 L 0.203125 -4.164062 Z M 5.828125 -12.078125 "/>
</symbol>
<symbol overflow="visible" id="glyph1-2">
<path style="stroke:none;" d="M 0.703125 -4.625 L 5.125 -4.625 L 5.125 -3.5 L 0.703125 -3.5 Z M 0.703125 -4.625 "/>
</symbol>
<symbol overflow="visible" id="glyph1-3">
<path style="stroke:none;" d="M 5.160156 -4.867188 C 4.484375 -4.644531 3.929688 -4.398438 3.488281 -4.132812 C 2.644531 -3.609375 2.222656 -3.015625 2.222656 -2.355469 C 2.222656 -1.820312 2.398438 -1.429688 2.75 -1.179688 C 2.980469 -1.015625 3.234375 -0.929688 3.515625 -0.929688 C 3.902344 -0.929688 4.273438 -1.039062 4.628906 -1.257812 C 4.984375 -1.472656 5.160156 -1.75 5.160156 -2.082031 Z M 0.660156 -1.75 C 0.660156 -2.597656 1.085938 -3.308594 1.933594 -3.875 C 2.472656 -4.226562 3.546875 -4.703125 5.160156 -5.308594 L 5.160156 -6.054688 C 5.160156 -6.652344 5.101562 -7.070312 4.984375 -7.304688 C 4.785156 -7.695312 4.371094 -7.890625 3.742188 -7.890625 C 3.445312 -7.890625 3.160156 -7.816406 2.890625 -7.664062 C 2.621094 -7.507812 2.488281 -7.289062 2.488281 -7.015625 C 2.488281 -6.945312 2.5 -6.824219 2.53125 -6.65625 C 2.5625 -6.492188 2.574219 -6.382812 2.574219 -6.335938 C 2.574219 -6.007812 2.46875 -5.78125 2.25 -5.652344 C 2.125 -5.574219 1.980469 -5.539062 1.8125 -5.539062 C 1.546875 -5.539062 1.34375 -5.625 1.203125 -5.796875 C 1.0625 -5.96875 0.992188 -6.160156 0.992188 -6.371094 C 0.992188 -6.78125 1.246094 -7.210938 1.753906 -7.660156 C 2.261719 -8.109375 3.003906 -8.332031 3.980469 -8.332031 C 5.117188 -8.332031 5.890625 -7.960938 6.292969 -7.226562 C 6.507812 -6.820312 6.617188 -6.230469 6.617188 -5.457031 L 6.617188 -1.933594 C 6.617188 -1.59375 6.640625 -1.359375 6.6875 -1.230469 C 6.765625 -1 6.921875 -0.886719 7.164062 -0.886719 C 7.296875 -0.886719 7.410156 -0.90625 7.496094 -0.949219 C 7.585938 -0.992188 7.738281 -1.089844 7.953125 -1.25 L 7.953125 -0.789062 C 7.765625 -0.5625 7.5625 -0.375 7.347656 -0.226562 C 7.019531 -0.00390625 6.6875 0.105469 6.34375 0.105469 C 5.945312 0.105469 5.660156 -0.0234375 5.480469 -0.28125 C 5.300781 -0.539062 5.203125 -0.847656 5.1875 -1.203125 C 4.742188 -0.816406 4.359375 -0.53125 4.042969 -0.34375 C 3.507812 -0.0273438 3.003906 0.132812 2.523438 0.132812 C 2.019531 0.132812 1.582031 -0.046875 1.210938 -0.398438 C 0.84375 -0.753906 0.660156 -1.203125 0.660156 -1.75 Z M 0.660156 -1.75 "/>
</symbol>
<symbol overflow="visible" id="glyph1-4">
<path style="stroke:none;" d="M 0.289062 -0.226562 C 0.746094 -0.269531 1.050781 -0.34375 1.203125 -0.457031 C 1.4375 -0.625 1.554688 -0.96875 1.554688 -1.476562 L 1.554688 -6.019531 C 1.554688 -6.453125 1.5 -6.738281 1.382812 -6.875 C 1.269531 -7.007812 1.082031 -7.074219 0.816406 -7.074219 C 0.695312 -7.074219 0.601562 -7.070312 0.539062 -7.058594 C 0.476562 -7.046875 0.40625 -7.023438 0.324219 -6.996094 L 0.324219 -7.304688 L 0.957031 -7.515625 C 1.1875 -7.589844 1.5625 -7.726562 2.082031 -7.929688 C 2.605469 -8.128906 2.878906 -8.226562 2.910156 -8.226562 C 2.9375 -8.226562 2.957031 -8.210938 2.960938 -8.183594 C 2.96875 -8.152344 2.96875 -8.097656 2.96875 -8.015625 L 2.96875 -6.828125 C 3.550781 -7.355469 4.050781 -7.722656 4.472656 -7.921875 C 4.894531 -8.125 5.328125 -8.226562 5.773438 -8.226562 C 6.378906 -8.226562 6.859375 -8.023438 7.214844 -7.609375 C 7.402344 -7.386719 7.558594 -7.085938 7.679688 -6.707031 C 8.113281 -7.144531 8.492188 -7.46875 8.816406 -7.679688 C 9.371094 -8.042969 9.941406 -8.226562 10.519531 -8.226562 C 11.464844 -8.226562 12.09375 -7.84375 12.410156 -7.074219 C 12.59375 -6.640625 12.683594 -5.957031 12.683594 -5.019531 L 12.683594 -1.371094 C 12.683594 -0.953125 12.773438 -0.671875 12.960938 -0.523438 C 13.144531 -0.375 13.476562 -0.273438 13.957031 -0.226562 L 13.957031 0 L 9.992188 0 L 9.992188 -0.246094 C 10.503906 -0.292969 10.839844 -0.394531 11 -0.554688 C 11.160156 -0.710938 11.242188 -1.035156 11.242188 -1.519531 L 11.242188 -5.308594 C 11.242188 -5.875 11.179688 -6.296875 11.054688 -6.566406 C 10.839844 -7.046875 10.414062 -7.285156 9.78125 -7.285156 C 9.402344 -7.285156 9.023438 -7.160156 8.648438 -6.90625 C 8.429688 -6.761719 8.164062 -6.527344 7.847656 -6.203125 L 7.847656 -1.703125 C 7.847656 -1.230469 7.933594 -0.871094 8.097656 -0.625 C 8.265625 -0.378906 8.617188 -0.246094 9.15625 -0.226562 L 9.15625 0 L 5.125 0 L 5.125 -0.226562 C 5.679688 -0.296875 6.035156 -0.433594 6.1875 -0.632812 C 6.339844 -0.832031 6.414062 -1.320312 6.414062 -2.101562 L 6.414062 -4.5625 C 6.414062 -5.464844 6.359375 -6.085938 6.242188 -6.425781 C 6.046875 -7 5.636719 -7.285156 5.007812 -7.285156 C 4.652344 -7.285156 4.300781 -7.1875 3.953125 -6.992188 C 3.609375 -6.796875 3.304688 -6.539062 3.039062 -6.222656 L 3.039062 -1.414062 C 3.039062 -0.96875 3.117188 -0.664062 3.273438 -0.492188 C 3.429688 -0.320312 3.765625 -0.234375 4.289062 -0.226562 L 4.289062 0 L 0.289062 0 Z M 0.289062 -0.226562 "/>
</symbol>
<symbol overflow="visible" id="glyph1-5">
<path style="stroke:none;" d="M 1.476562 -11.347656 C 1.476562 -11.597656 1.5625 -11.816406 1.742188 -11.996094 C 1.917969 -12.179688 2.132812 -12.269531 2.390625 -12.269531 C 2.640625 -12.269531 2.859375 -12.179688 3.035156 -12 C 3.214844 -11.820312 3.304688 -11.605469 3.304688 -11.347656 C 3.304688 -11.09375 3.214844 -10.878906 3.035156 -10.699219 C 2.859375 -10.523438 2.640625 -10.433594 2.390625 -10.433594 C 2.132812 -10.433594 1.914062 -10.523438 1.742188 -10.699219 C 1.566406 -10.878906 1.476562 -11.09375 1.476562 -11.347656 Z M 0.351562 -0.246094 C 0.976562 -0.304688 1.375 -0.410156 1.539062 -0.566406 C 1.703125 -0.722656 1.785156 -1.140625 1.785156 -1.828125 L 1.785156 -6.019531 C 1.785156 -6.402344 1.757812 -6.664062 1.703125 -6.8125 C 1.617188 -7.050781 1.433594 -7.171875 1.152344 -7.171875 C 1.085938 -7.171875 1.023438 -7.164062 0.960938 -7.15625 C 0.898438 -7.144531 0.722656 -7.09375 0.429688 -7.015625 L 0.429688 -7.285156 L 0.808594 -7.410156 C 1.835938 -7.742188 2.546875 -7.996094 2.953125 -8.164062 C 3.117188 -8.234375 3.222656 -8.269531 3.269531 -8.269531 C 3.28125 -8.230469 3.289062 -8.1875 3.289062 -8.140625 L 3.289062 -1.828125 C 3.289062 -1.160156 3.367188 -0.742188 3.527344 -0.570312 C 3.6875 -0.402344 4.054688 -0.292969 4.625 -0.246094 L 4.625 0 L 0.351562 0 Z M 0.351562 -0.246094 "/>
</symbol>
<symbol overflow="visible" id="glyph1-6">
<path style="stroke:none;" d="M 0.324219 -0.246094 C 0.742188 -0.296875 1.03125 -0.402344 1.199219 -0.558594 C 1.367188 -0.714844 1.449219 -1.0625 1.449219 -1.601562 L 1.449219 -6.054688 C 1.449219 -6.429688 1.414062 -6.695312 1.34375 -6.847656 C 1.234375 -7.070312 1.003906 -7.179688 0.660156 -7.179688 C 0.605469 -7.179688 0.550781 -7.179688 0.496094 -7.171875 C 0.441406 -7.164062 0.371094 -7.15625 0.289062 -7.144531 L 0.289062 -7.453125 C 0.53125 -7.523438 1.097656 -7.703125 1.996094 -8 L 2.820312 -8.269531 C 2.863281 -8.269531 2.886719 -8.257812 2.894531 -8.226562 C 2.90625 -8.195312 2.910156 -8.15625 2.910156 -8.101562 L 2.910156 -6.8125 C 3.449219 -7.316406 3.871094 -7.660156 4.175781 -7.847656 C 4.632812 -8.136719 5.105469 -8.28125 5.597656 -8.28125 C 5.996094 -8.28125 6.359375 -8.164062 6.6875 -7.9375 C 7.320312 -7.492188 7.636719 -6.695312 7.636719 -5.554688 L 7.636719 -1.449219 C 7.636719 -1.027344 7.722656 -0.722656 7.890625 -0.535156 C 8.0625 -0.347656 8.347656 -0.25 8.746094 -0.246094 L 8.746094 0 L 4.992188 0 L 4.992188 -0.246094 C 5.421875 -0.304688 5.71875 -0.421875 5.890625 -0.601562 C 6.058594 -0.78125 6.144531 -1.167969 6.144531 -1.765625 L 6.144531 -5.519531 C 6.144531 -6.023438 6.050781 -6.441406 5.863281 -6.773438 C 5.675781 -7.101562 5.328125 -7.269531 4.824219 -7.269531 C 4.480469 -7.269531 4.128906 -7.152344 3.769531 -6.917969 C 3.570312 -6.78125 3.3125 -6.558594 2.996094 -6.25 L 2.996094 -1.328125 C 2.996094 -0.90625 3.089844 -0.621094 3.277344 -0.480469 C 3.464844 -0.335938 3.761719 -0.257812 4.164062 -0.246094 L 4.164062 0 L 0.324219 0 Z M 0.324219 -0.246094 "/>
</symbol>
<symbol overflow="visible" id="glyph1-7">
<path style="stroke:none;" d="M 0.457031 -4.078125 C 0.457031 -5.242188 0.828125 -6.230469 1.570312 -7.035156 C 2.3125 -7.839844 3.265625 -8.242188 4.429688 -8.242188 C 5.589844 -8.242188 6.550781 -7.863281 7.3125 -7.101562 C 8.074219 -6.339844 8.453125 -5.328125 8.453125 -4.0625 C 8.453125 -2.894531 8.085938 -1.882812 7.347656 -1.019531 C 6.609375 -0.15625 5.65625 0.273438 4.484375 0.273438 C 3.359375 0.273438 2.40625 -0.140625 1.625 -0.96875 C 0.847656 -1.792969 0.457031 -2.828125 0.457031 -4.078125 Z M 4.183594 -7.71875 C 3.71875 -7.71875 3.320312 -7.5625 2.980469 -7.257812 C 2.394531 -6.726562 2.101562 -5.804688 2.101562 -4.5 C 2.101562 -3.457031 2.335938 -2.484375 2.808594 -1.582031 C 3.28125 -0.679688 3.933594 -0.226562 4.773438 -0.226562 C 5.429688 -0.226562 5.933594 -0.53125 6.289062 -1.132812 C 6.644531 -1.738281 6.820312 -2.527344 6.820312 -3.507812 C 6.820312 -4.519531 6.59375 -5.476562 6.144531 -6.371094 C 5.691406 -7.269531 5.039062 -7.71875 4.183594 -7.71875 Z M 4.183594 -7.71875 "/>
</symbol>
<symbol overflow="visible" id="glyph1-8">
<path style="stroke:none;" d="M 0.0625 -11.179688 L 0.0625 -11.476562 C 0.730469 -11.628906 1.328125 -11.800781 1.863281 -11.988281 C 2.398438 -12.175781 2.683594 -12.269531 2.726562 -12.269531 C 2.738281 -12.234375 2.742188 -12.199219 2.742188 -12.164062 L 2.742188 -6.8125 C 2.894531 -7.09375 3.125 -7.359375 3.429688 -7.609375 C 3.96875 -8.050781 4.585938 -8.269531 5.289062 -8.269531 C 6.152344 -8.269531 6.886719 -7.90625 7.496094 -7.179688 C 8.105469 -6.453125 8.410156 -5.511719 8.410156 -4.351562 C 8.410156 -3.109375 8.015625 -2.046875 7.226562 -1.160156 C 6.433594 -0.273438 5.394531 0.167969 4.105469 0.167969 C 3.453125 0.167969 2.816406 0.0390625 2.1875 -0.21875 C 1.5625 -0.476562 1.25 -0.734375 1.25 -0.992188 L 1.25 -10.28125 C 1.25 -10.621094 1.203125 -10.863281 1.109375 -11.007812 C 1.015625 -11.152344 0.796875 -11.222656 0.457031 -11.222656 Z M 2.707031 -1.28125 C 2.757812 -0.976562 2.988281 -0.761719 3.390625 -0.628906 C 3.796875 -0.496094 4.152344 -0.429688 4.457031 -0.429688 C 5.277344 -0.429688 5.882812 -0.738281 6.28125 -1.351562 C 6.675781 -1.96875 6.875 -2.710938 6.875 -3.585938 C 6.875 -4.460938 6.6875 -5.265625 6.320312 -6.007812 C 5.949219 -6.75 5.351562 -7.117188 4.527344 -7.117188 C 4.109375 -7.117188 3.703125 -6.992188 3.304688 -6.738281 C 2.90625 -6.484375 2.707031 -6.15625 2.707031 -5.765625 Z M 2.707031 -1.28125 "/>
</symbol>
<symbol overflow="visible" id="glyph1-9">
<path style="stroke:none;" d="M 4.121094 -8.242188 C 4.949219 -8.242188 5.671875 -7.957031 6.292969 -7.386719 C 6.914062 -6.816406 7.226562 -6.007812 7.226562 -4.957031 L 1.644531 -4.957031 C 1.703125 -3.597656 2.007812 -2.609375 2.566406 -1.984375 C 3.125 -1.363281 3.78125 -1.054688 4.542969 -1.054688 C 5.160156 -1.054688 5.679688 -1.214844 6.101562 -1.539062 C 6.523438 -1.859375 6.910156 -2.316406 7.269531 -2.910156 L 7.578125 -2.804688 C 7.335938 -2.058594 6.886719 -1.371094 6.226562 -0.738281 C 5.566406 -0.105469 4.761719 0.210938 3.804688 0.210938 C 2.703125 0.210938 1.851562 -0.203125 1.253906 -1.039062 C 0.652344 -1.871094 0.351562 -2.828125 0.351562 -3.910156 C 0.351562 -5.089844 0.699219 -6.105469 1.398438 -6.960938 C 2.09375 -7.816406 3.003906 -8.242188 4.121094 -8.242188 Z M 3.613281 -7.601562 C 2.945312 -7.601562 2.433594 -7.304688 2.082031 -6.714844 C 1.894531 -6.398438 1.761719 -6 1.679688 -5.519531 L 5.386719 -5.519531 C 5.324219 -6.105469 5.210938 -6.542969 5.054688 -6.828125 C 4.765625 -7.34375 4.285156 -7.601562 3.613281 -7.601562 Z M 3.613281 -7.601562 "/>
</symbol>
<symbol overflow="visible" id="glyph1-10">
<path style="stroke:none;" d="M 7.285156 -8.078125 L 7.285156 -7.867188 L 2.40625 -0.554688 L 4.894531 -0.554688 C 5.757812 -0.554688 6.300781 -0.664062 6.53125 -0.882812 C 6.757812 -1.101562 6.984375 -1.640625 7.207031 -2.496094 L 7.515625 -2.433594 L 7.269531 0 L 0.457031 0 L 0.457031 -0.203125 L 5.265625 -7.539062 L 2.910156 -7.539062 C 2.277344 -7.539062 1.863281 -7.433594 1.671875 -7.214844 C 1.476562 -7 1.34375 -6.578125 1.265625 -5.949219 L 0.957031 -5.949219 L 0.992188 -8.078125 Z M 7.285156 -8.078125 "/>
</symbol>
<symbol overflow="visible" id="glyph1-11">
<path style="stroke:none;" d="M 4.578125 -8.101562 L 4.578125 -7.46875 L 2.785156 -7.46875 L 2.769531 -2.40625 C 2.769531 -1.960938 2.804688 -1.625 2.882812 -1.398438 C 3.023438 -0.992188 3.296875 -0.789062 3.710938 -0.789062 C 3.921875 -0.789062 4.101562 -0.839844 4.257812 -0.941406 C 4.414062 -1.039062 4.589844 -1.199219 4.789062 -1.414062 L 5.019531 -1.222656 L 4.824219 -0.957031 C 4.519531 -0.546875 4.199219 -0.257812 3.859375 -0.0859375 C 3.519531 0.0820312 3.191406 0.167969 2.875 0.167969 C 2.183594 0.167969 1.714844 -0.140625 1.46875 -0.757812 C 1.332031 -1.089844 1.265625 -1.554688 1.265625 -2.144531 L 1.265625 -7.46875 L 0.308594 -7.46875 C 0.277344 -7.488281 0.257812 -7.507812 0.242188 -7.523438 C 0.226562 -7.539062 0.21875 -7.5625 0.21875 -7.59375 C 0.21875 -7.652344 0.234375 -7.699219 0.257812 -7.730469 C 0.285156 -7.761719 0.367188 -7.835938 0.507812 -7.953125 C 0.914062 -8.289062 1.207031 -8.558594 1.382812 -8.765625 C 1.5625 -8.976562 1.984375 -9.523438 2.644531 -10.414062 C 2.722656 -10.414062 2.765625 -10.410156 2.78125 -10.398438 C 2.796875 -10.386719 2.804688 -10.34375 2.804688 -10.265625 L 2.804688 -8.101562 Z M 4.578125 -8.101562 "/>
</symbol>
</g>
</defs>
<g id="surface106">
<rect x="0" y="0" width="400" height="200" style="fill:rgb(100%,100%,100%);fill-opacity:1;stroke:none;"/>
<g style="fill:rgb(100%,0%,0%);fill-opacity:1;">
  <use xlink:href="#glyph0-1" x="281.902344" y="137.671875"/>
  <use xlink:href="#glyph0-2" x="291.236328" y="137.671875"/>
</g>
<g style="fill:rgb(100%,0%,0%);fill-opacity:1;">
  <use xlink:href="#glyph0-1" x="281.867188" y="71.421875"/>
</g>
<g style="fill:rgb(0%,0%,100%);fill-opacity:1;">
  <use xlink:href="#glyph0-2" x="95.484375" y="104.304688"/>
  <use xlink:href="#glyph0-3" x="104.150391" y="104.304688"/>
  <use xlink:href="#glyph0-4" x="110.824219" y="104.304688"/>
</g>
<path style="fill:none;stroke-width:1;stroke-linecap:butt;stroke-linejoin:miter;stroke:rgb(100%,0%,0%);stroke-opacity:1;stroke-miterlimit:10;" d="M 282.386719 126.761719 L 274.664062 113.378906 "/>
<path style="fill:none;stroke-width:1;stroke-linecap:butt;stroke-linejoin:miter;stroke:rgb(0%,0%,0%);stroke-opacity:1;stroke-miterlimit:10;" d="M 274.664062 113.378906 L 266.9375 100 "/>
<path style="fill:none;stroke-width:1;stroke-linecap:butt;stroke-linejoin:miter;stroke:rgb(0%,0%,0%);stroke-opacity:1;stroke-miterlimit:10;" d="M 270.183594 101.875 L 277.910156 88.496094 "/>
<path style="fill:none;stroke-width:1;stroke-linecap:butt;stroke-linejoin:miter;stroke:rgb(100%,0%,0%);stroke-opacity:1;stroke-miterlimit:10;" d="M 277.910156 88.496094 L 285.636719 75.113281 "/>
<path style="fill:none;stroke-width:1;stroke-linecap:butt;stroke-linejoin:miter;stroke:rgb(0%,0%,0%);stroke-opacity:1;stroke-miterlimit:10;" d="M 263.691406 98.125 L 271.414062 84.746094 "/>
<path style="fill:none;stroke-width:1;stroke-linecap:butt;stroke-linejoin:miter;stroke:rgb(100%,0%,0%);stroke-opacity:1;stroke-miterlimit:10;" d="M 271.414062 84.746094 L 279.140625 71.363281 "/>
<path style="fill:none;stroke-width:1;stroke-linecap:butt;stroke-linejoin:miter;stroke:rgb(0%,0%,0%);stroke-opacity:1;stroke-miterlimit:10;" d="M 266.9375 100 L 228.6875 100 "/>
<path style="fill:none;stroke-width:1;stroke-linecap:butt;stroke-linejoin:miter;stroke:rgb(0%,0%,0%);stroke-opacity:1;stroke-miterlimit:10;" d="M 228.6875 100 L 209.5625 133.125 "/>
<path style="fill:none;stroke-width:1;stroke-linecap:butt;stroke-linejoin:miter;stroke:rgb(0%,0%,0%);stroke-opacity:1;stroke-miterlimit:10;" d="M 220.28125 99.5625 L 204.980469 126.0625 "/>
<path style="fill:none;stroke-width:1;stroke-linecap:butt;stroke-linejoin:miter;stroke:rgb(0%,0%,0%);stroke-opacity:1;stroke-miterlimit:10;" d="M 209.5625 133.125 L 171.3125 133.125 "/>
<path style="fill:none;stroke-width:1;stroke-linecap:butt;stroke-linejoin:miter;stroke:rgb(0%,0%,0%);stroke-opacity:1;stroke-miterlimit:10;" d="M 171.3125 133.125 L 152.1875 100 "/>
<path style="fill:none;stroke-width:1;stroke-linecap:butt;stroke-linejoin:miter;stroke:rgb(0%,0%,0%);stroke-opacity:1;stroke-miterlimit:10;" d="M 175.894531 126.0625 L 160.59375 99.5625 "/>
<path style="fill:none;stroke-width:1;stroke-linecap:butt;stroke-linejoin:miter;stroke:rgb(0%,0%,0%);stroke-opacity:1;stroke-miterlimit:10;" d="M 152.1875 100 L 135.769531 100 "/>
<path style="fill:none;stroke-width:1;stroke-linecap:butt;stroke-linejoin:miter;stroke:rgb(0%,0%,100%);stroke-opacity:1;stroke-miterlimit:10;" d="M 135.769531 100 L 119.347656 100 "/>
<path style="fill:none;stroke-width:1;stroke-linecap:butt;stroke-linejoin:miter;stroke:rgb(0%,0%,0%);stroke-opacity:1;stroke-miterlimit:10;" d="M 152.1875 100 L 171.3125 66.875 "/>
<path style="fill:none;stroke-width:1;stroke-linecap:butt;stroke-linejoin:miter;stroke:rgb(0%,0%,0%);stroke-opacity:1;stroke-miterlimit:10;" d="M 171.3125 66.875 L 209.5625 66.875 "/>
<path style="fill:none;stroke-width:1;stroke-linecap:butt;stroke-linejoin:miter;stroke:rgb(0%,0%,0%);stroke-opacity:1;stroke-miterlimit:10;" d="M 175.136719 74.375 L 205.738281 74.375 "/>
<path style="fill:none;stroke-width:1;stroke-linecap:butt;stroke-linejoin:miter;stroke:rgb(0%,0%,0%);stroke-opacity:1;stroke-miterlimit:10;" d="M 209.5625 66.875 L 228.6875 100 "/>
<g style="fill:rgb(0%,0%,0%);fill-opacity:1;">
  <use xlink:href="#glyph1-1" x="138.335938" y="26.269531"/>
  <use xlink:href="#glyph1-2" x="147.335938" y="26.269531"/>
  <use xlink:href="#glyph1-3" x="153.330078" y="26.269531"/>
  <use xlink:href="#glyph1-4" x="161.319336" y="26.269531"/>
  <use xlink:href="#glyph1-5" x="175.320312" y="26.269531"/>
  <use xlink:href="#glyph1-6" x="180.321289" y="26.269531"/>
  <use xlink:href="#glyph1-7" x="189.321289" y="26.269531"/>
  <use xlink:href="#glyph1-8" x="198.321289" y="26.269531"/>
  <use xlink:href="#glyph1-9" x="207.321289" y="26.269531"/>
  <use xlink:href="#glyph1-6" x="215.310547" y="26.269531"/>
  <use xlink:href="#glyph1-10" x="224.310547" y="26.269531"/>
  <use xlink:href="#glyph1-7" x="232.299805" y="26.269531"/>
  <use xlink:href="#glyph1-3" x="241.299805" y="26.269531"/>
  <use xlink:href="#glyph1-11" x="249.289062" y="26.269531"/>
  <use xlink:href="#glyph1-9" x="254.290039" y="26.269531"/>
</g>
</g>
</svg>
